# xmcd CD database file
#
# Track frame offsets:
#	150
#	40813
#	74804
#	109779
#	139231
#	189894
#	213899
#	218318
#	244373
#
# Disc length: 4227 seconds
#
# Revision: 0
# Processed by: cddbd v1.5.2PL0 Copyright (c) Steve Scherf et al.
# Submitted via: CDex 1.51
#
DISCID=83108109
DTITLE=The Walter Trout Power Trio - Hardcore
DYEAR=2007
DGENRE=Blues
TTITLE0=Gotta leave this town
TTITLE1=Telling stories
TTITLE2=Finally gotten over You
TTITLE3=Give me back my wick
TTITLE4=The reason I'm gone
TTITLE5=Not fade away
TTITLE6=Channeling Neil Young
TTITLE7=Sittin on top of the world
TTITLE8=Tribute to Muddy Waters
EXTD=YEAR: 2007
EXTT0=
EXTT1=
EXTT2=
EXTT3=
EXTT4=
EXTT5=
EXTT6=
EXTT7=
EXTT8=
PLAYORDER=
